<?xml version="1.0"?>
<svg version="1.1" xmlns="http://www.w3.org/2000/svg" width="800px" height="274px" style=""><path fill="#ffc800" d="M91.872,197.726q16.878,0.522,17.835,0.522l1.131,0q4.176-0.348,4.176,1.218q0,2.436-6.786,2.436l-14.79-0.348q-4.524,0.348-5.394,0.87q-7.308,9.048-19.662,26.187t-12.354,20.445q0,1.392,3.132-0.696q1.914,0,1.914,0.522q0,0.87-3.828,2.61l-4.872,2.61q-3.306,2.784-7.569,2.784t-3.915-2.088q0.174-4.176,12.354-21.141t25.23-32.277q-12.528,2.262-19.14,2.262q-0.696-0.174-0.696-1.131t2.088-2.697t4.437-1.74t7.569-0.174l8.874,0q5.916-8.004,26.274-36.888q8.352-12.006,8.352-19.836q0-12.18-18.096-12.18q-14.094,0-33.147,7.83t-35.061,21.402q-11.31,9.396-17.922,20.358t-6.612,19.488q0,13.746,16.356,13.746q1.392,0,2.958-0.174q10.614-0.87,20.097-12.093t9.483-18.879q0-0.696-0.174-1.566q4.524,0.87,4.524,5.394q0,7.482-9.744,17.574q-13.224,13.746-30.624,13.746q-9.57,0-14.964-5.046t-5.394-13.746q0-20.532,25.056-41.412q18.096-14.79,38.454-22.359t35.409-7.569t22.446,4.35t7.395,12.093t-6.786,17.487q-4.002,6.438-28.014,38.106z M163.06758,204.512q0,6.09-11.658,20.358q-13.746,16.878-23.49,16.878l-2.784,0q-4.524,0-7.134-4.698q-2.088-3.306-2.088-7.308q0-10.44,15.225-29.319t24.621-18.879q8.874,0,8.874,9.396q0,2.436-0.87,6.264q0.174,0.522,3.306,0.522t9.57-3.306q-0.174,2.958-13.746,8.526q0.174,0.696,0.174,1.566z M151.75758,195.464q-5.916,0-16.791,13.92t-10.875,20.532t4.176,6.612q7.482,0,18.966-13.572t11.484-19.488q-2.784-1.566-6.96-8.004z M219.64716,204.512q0,6.09-11.658,20.358q-13.746,16.878-23.49,16.878l-2.784,0q-4.524,0-7.134-4.698q-2.088-3.306-2.088-7.308q0-10.44,15.225-29.319t24.621-18.879q8.874,0,8.874,9.396q0,2.436-0.87,6.264q0.174,0.522,3.306,0.522t9.57-3.306q-0.174,2.958-13.746,8.526q0.174,0.696,0.174,1.566z M208.33716,195.464q-5.916,0-16.791,13.92t-10.875,20.532t4.176,6.612q7.482,0,18.966-13.572t11.484-19.488q-2.784-1.566-6.96-8.004z M287.88474,188.678q19.488-31.668,27.144-31.668q1.218,0,3.393,0.783t2.175,2.349q0,0.87-0.87,2.262q-13.92,17.052-20.706,25.578q-20.532,25.926-22.62,37.236q-0.522,2.436-0.522,4.872q0,7.83,6.438,7.83q12.876,0,33.582-23.838q1.74-1.74,2.958-2.001t1.218,0.609t-1.044,2.088q-20.184,24.186-35.844,26.97q-0.87,0.174-2.436,0.174q-5.394,0-8.091-3.741t-2.697-8.091q0-4.872,1.914-10.788l-14.094,14.094q-9.57,8.874-15.051,8.874t-9.135-2.958q-4.35-3.306-4.35-9.222q0-12.702,17.748-30.363t32.538-17.661q4.872,0,6.786,2.61q0.696,0.87,1.566,4.002z M236.55474,232.178q0,6.264,4.35,6.264q7.482,0,24.882-20.532q3.132-3.654,20.88-27.318q-1.218-2.088-4.176-2.088q-10.788,0-28.362,16.443t-17.574,27.231z M415.10832,156.662l-0.348,5.568q0,11.31,12.18,11.31q10.092,0,20.358-6.96t10.266-14.094t-8.352-12.006q-5.568-3.306-17.4-3.306q-17.574,0-39.237,8.352t-40.629,26.796q-24.882,24.36-24.882,44.718q0,12.006,9.135,19.314t23.925,7.308q20.532,0,47.676-15.486q22.62-12.702,33.93-26.97l5.046-7.482q-3.132,0-25.926,1.827t-26.1,2.61t-5.394,0.783q-5.742,0-5.742-2.784q0-4.35,13.224-7.221t44.718-2.871t41.586,2.436q1.566,0.348,1.566,0.87q0,1.914-12.006,2.784q-14.964,1.218-15.312,1.218q-17.748,23.316-45.936,72.036q-1.566,2.784-3.045,2.784t-1.479-2.262q0-6.09,9.744-23.49l12.18-22.794q-11.136,9.57-28.362,17.922q-22.446,10.614-42.369,10.614t-30.45-8.613t-10.527-23.055q0-26.622,32.19-54.114q16.182-13.92,39.15-23.142t40.281-9.222t26.535,6.786q7.134,5.568,7.134,12.528q0,9.918-12.267,19.053t-24.273,9.135q-16.182,0-16.182-18.618q0-7.134,2.958-7.134q2.436,0,2.436,4.872z M520.2339,242.444q-0.87,0.174-3.741,0.174t-5.742-2.262t-2.871-5.829t1.305-7.917t1.827-6.612q-20.01,23.316-31.32,23.316q-7.134,0-7.83-8.874l0-1.218q0-7.482,9.048-20.184q-5.046,4.524-10.266,10.44q-0.696,0.696-1.74,0.696q-0.696,0-0.696-0.87t1.566-2.958l24.012-28.188q4.524-5.22,9.222-5.22t4.698,3.132q0,1.218-1.044,2.262q-6.96,6.438-17.487,21.402t-10.527,22.098q0,3.132,2.088,3.132q7.308,0,21.228-14.442q4.872-4.872,18.096-21.489t17.4-16.617q6.264,0,6.264,4.872q0,1.74-7.308,10.092q-9.918,12.006-15.138,19.575t-5.22,12.267t2.61,4.698q1.218,0,2.784-0.696q12.006-5.22,28.71-24.36q1.044-1.218,2.088-1.218t1.044,1.131t-1.218,2.523q-7.482,8.7-17.574,17.487t-14.268,9.657z M595.86648,172.061q2.349,1.653,2.349,3.915t-2.175,3.915t-4.785,1.653t-4.785-1.914t-2.175-4.35q0-4.872,6.612-4.872q2.61,0,4.959,1.653z M559.41348,243.314q-8.874,0-8.874-11.484q0-9.396,10.266-26.013t16.53-16.791q1.74,0,3.915,1.392t2.175,2.784q-0.87,1.218-2.088,2.697t-2.61,3.219t-3.828,4.959t-4.698,6.177q-13.05,16.878-13.05,23.229t4.35,6.351q3.654,0,9.918-4.002q14.616-9.048,23.142-19.836q3.132-4.002,4.263-4.002t1.131,1.392t-4.002,5.568t-6.351,6.612t-3.219,3.219t-3.219,2.958t-3.567,3.045t-3.48,2.61t-4.002,2.523t-4.002,1.827q-3.654,1.566-8.7,1.566z M657.23106,188.678q19.488-31.668,27.144-31.668q1.218,0,3.393,0.783t2.175,2.349q0,0.87-0.87,2.262q-13.92,17.052-20.706,25.578q-20.532,25.926-22.62,37.236q-0.522,2.436-0.522,4.872q0,7.83,6.438,7.83q12.876,0,33.582-23.838q1.74-1.74,2.958-2.001t1.218,0.609t-1.044,2.088q-20.184,24.186-35.844,26.97q-0.87,0.174-2.436,0.174q-5.394,0-8.091-3.741t-2.697-8.091q0-4.872,1.914-10.788l-14.094,14.094q-9.57,8.874-15.051,8.874t-9.135-2.958q-4.35-3.306-4.35-9.222q0-12.702,17.748-30.363t32.538-17.661q4.872,0,6.786,2.61q0.696,0.87,1.566,4.002z M605.90106,232.178q0,6.264,4.35,6.264q7.482,0,24.882-20.532q3.132-3.654,20.88-27.318q-1.218-2.088-4.176-2.088q-10.788,0-28.362,16.443t-17.574,27.231z M697.97664,243.662q-1.914,0-3.48-0.522q-11.136-3.132-11.136-12.528q0-12.18,15.312-28.188t27.492-16.008q4.002,0,6.525,2.175t2.523,5.307q0,9.744-14.703,18.618t-23.925,8.874q-1.392,0-2.436-0.348q-2.61,4.698-2.61,9.918q0,9.048,8.613,9.048t22.359-11.658q10.614-8.526,18.096-18.096q1.566-2.088,2.697-2.088t1.131,1.044t-1.392,2.958q-9.396,12.354-22.62,21.924t-22.446,9.57z M730.86264,193.55q0-2.088-4.437-2.088t-12.615,6.786q-10.962,9.048-17.052,18.966q1.044,0.348,2.262,0.348q6.612,0,17.661-7.047t13.833-15.399q0.348-0.87,0.348-1.566z"/><path fill="#" d=""/></svg>
